<svg width="190" height="60" viewBox="0 0 190 60" fill="none" xmlns="http://www.w3.org/2000/svg">
<g clip-path="url(#clip0_1_61)">
<path fill-rule="evenodd" clip-rule="evenodd" d="M159.799 0C176.478 0 190 13.4313 190 30C190 46.5687 176.478 60 159.799 60C143.119 60 129.599 46.5687 129.599 30C129.599 13.4313 143.119 0 159.799 0ZM150.792 35.6621C150.792 43.6659 157.327 50.1657 165.393 50.1657C169.282 50.1657 172.972 48.6458 175.718 45.9174C178.466 43.1872 179.994 39.5209 179.994 35.6606C179.994 27.6509 173.461 21.1579 165.398 21.1541C157.337 21.151 150.792 27.6547 150.792 35.6621ZM147.376 5.67908C150.692 4.14647 154.317 3.35358 157.99 3.35637C164.661 3.36161 170.998 5.97395 175.716 10.6609C180.31 15.2244 182.929 21.315 183.062 27.767C183.111 30.074 182.837 32.3762 182.252 34.6022C181.996 30.529 180.264 26.7018 177.339 23.7952C172.218 18.7082 164.412 17.4547 157.982 20.5766C158.311 19.4926 158.478 18.3646 158.478 17.2294C158.478 11.0204 153.558 5.96061 147.376 5.67908ZM148.514 35.0861C148.194 44.1949 155.289 51.854 164.348 52.4066C162.207 52.9633 159.997 53.2372 157.778 53.2208C151.167 53.1719 144.899 50.562 140.223 45.9174C136.511 42.2291 134.044 37.6969 133.191 32.5371C132.456 28.0937 132.978 23.4587 134.593 19.2571C135.492 16.9241 136.747 14.675 138.352 12.7476C139.708 11.1197 141.387 9.63813 143.317 8.71898C147.014 6.9571 150.567 7.79737 153.449 10.6609C155.191 12.3912 156.171 14.7093 156.19 17.1574C156.207 19.4137 155.406 21.59 153.919 23.2981C153.716 23.5321 153.498 23.7506 153.279 23.9692C153.096 24.1524 152.912 24.3357 152.738 24.5282C150.131 27.3951 148.648 31.2369 148.514 35.0861ZM177.012 9.37333C182.124 14.4529 184.751 21.0706 184.89 27.7308C185.029 34.4178 182.659 41.1457 177.781 46.4028C177.253 46.9723 177.066 47.1639 176.599 47.6036C171.343 52.6091 164.548 55.0866 157.769 55.0364C150.942 54.9854 144.132 52.3747 138.928 47.2048C135.987 44.2824 133.967 41.0668 132.708 37.7618C133.973 42.2158 136.37 46.4204 139.899 49.9253C145.403 55.3929 152.616 58.1268 159.824 58.1268V58.124C175.133 58.124 187.597 45.9944 187.997 30.8829C188.018 30.1386 188.004 29.3893 187.964 28.6447C187.611 21.9846 184.873 15.4262 179.751 10.3389C176.013 6.62608 171.489 4.1737 166.711 2.98199C170.474 4.26096 174.01 6.39157 177.012 9.37333Z" fill="white"/>
<path d="M72.2285 16.757L74.459 14.1977C74.5515 14.0916 74.6714 14.0368 74.8131 14.0368H75.9686C76.1415 14.0368 76.2809 14.1753 76.2809 14.3464V21.4249C76.2809 21.5953 76.1415 21.7346 75.9686 21.7346H74.6608C74.4891 21.7346 74.3485 21.5953 74.3497 21.4246V17.3439C74.3486 17.2774 74.3098 17.2208 74.2466 17.1989C74.1844 17.1759 74.118 17.1927 74.075 17.2428L72.3434 19.2268C72.282 19.2977 72.2017 19.3339 72.107 19.3339C72.0139 19.3339 71.9332 19.2977 71.8712 19.2268L70.1468 17.2431C70.1041 17.1927 70.0366 17.1757 69.9742 17.1989C69.912 17.2214 69.8724 17.278 69.8724 17.3439V21.4249C69.8724 21.5959 69.7316 21.7346 69.56 21.7339L68.2532 21.7346C68.0817 21.7339 67.9408 21.5959 67.9408 21.4246V14.3464C67.9397 14.176 68.0804 14.0368 68.2532 14.0368H69.4087C69.5491 14.0368 69.6706 14.0916 69.7618 14.1977L71.9924 16.757C72.0236 16.7914 72.0631 16.81 72.1114 16.81C72.1565 16.81 72.1982 16.792 72.2285 16.757ZM51.9649 17.0621H52.4994C52.8544 17.0621 53.1375 16.9486 53.3458 16.7227C53.5538 16.4972 53.7149 16.1173 53.8286 15.5833C53.9412 15.0488 54.1634 14.641 54.4925 14.3584C54.8232 14.0761 55.1955 13.935 55.6118 13.935C55.8875 13.935 56.1557 13.9653 56.4228 14.0219C56.5676 14.0531 56.6698 14.1772 56.6698 14.3257V15.192C56.6698 15.2817 56.6352 15.3583 56.5698 15.4197C56.5035 15.48 56.4228 15.5081 56.3328 15.501C56.1148 15.4852 55.9056 15.5143 55.7146 15.678C55.571 15.8027 55.4605 16.0254 55.3855 16.3452C55.3091 16.6646 55.191 16.9486 55.0322 17.197C54.851 17.4831 54.628 17.6941 54.3629 17.829C54.704 17.8742 55.0067 18.0468 55.2717 18.3484C55.4829 18.5969 55.7448 19.0504 56.0559 19.7084C56.2995 20.227 56.5461 20.7563 56.7962 21.2959C56.8414 21.3946 56.8349 21.5007 56.7748 21.5922C56.7159 21.6834 56.6225 21.7346 56.5119 21.7346H55.0861C54.9616 21.7346 54.8531 21.6664 54.8018 21.5536C54.4895 20.8687 54.1761 20.1842 53.8628 19.4999C53.5068 18.8153 53.1085 18.4726 52.6697 18.4726H51.9649V21.4249C51.9649 21.5953 51.8241 21.7346 51.6526 21.7346H50.3457C50.1731 21.7346 50.0337 21.5953 50.0337 21.4249V14.3464C50.0337 14.1753 50.1731 14.0368 50.3457 14.0368H51.6526C51.8241 14.0368 51.9649 14.1753 51.9649 14.3464V17.0621ZM66.544 17.8853C66.544 18.9388 66.1535 19.8456 65.3734 20.606C64.5321 21.4261 63.4451 21.8363 62.1129 21.8363C60.7554 21.8363 59.6609 21.4261 58.8285 20.606C58.0548 19.8456 57.6686 18.9388 57.6686 17.8853C57.6686 16.8622 58.0442 15.9706 58.7941 15.2108C59.6354 14.3607 60.7404 13.935 62.1129 13.935C63.4829 13.935 64.5848 14.3607 65.4186 15.2108C66.1685 15.9706 66.544 16.8622 66.544 17.8853ZM64.5546 17.8853C64.5546 17.1781 64.3316 16.6096 63.8852 16.1817C63.4377 15.7526 62.8466 15.5372 62.1129 15.5372C61.3691 15.5372 60.7746 15.7526 60.3284 16.1817C59.881 16.6096 59.6578 17.1781 59.6578 17.8853C59.6578 18.5929 59.881 19.1611 60.3284 19.5897C60.7746 20.019 61.3691 20.2334 62.1129 20.2334C62.8466 20.2334 63.4377 20.019 63.8852 19.5897C64.3316 19.1611 64.5546 18.5929 64.5546 17.8853ZM85.7356 14.3464V21.4249C85.7356 21.5953 85.5952 21.7346 85.4236 21.7346H84.1156C83.9439 21.7346 83.8031 21.5953 83.8031 21.4249V15.837C83.8031 15.6662 83.6639 15.5267 83.4911 15.5267H80.253C80.0801 15.5267 79.9407 15.6662 79.9407 15.837V21.4249C79.9407 21.5953 79.8002 21.7346 79.6286 21.7346H78.3206C78.1489 21.7346 78.0082 21.5953 78.0082 21.4249V14.3464C78.0082 14.1753 78.1489 14.0368 78.3206 14.0368H85.4236C85.5952 14.0368 85.7356 14.1753 85.7356 14.3464ZM92.1198 14.3128L95.3022 21.4298C95.3334 21.4991 95.3277 21.573 95.2859 21.6359C95.2451 21.6999 95.1798 21.7346 95.1035 21.7346H93.6724C93.479 21.7346 93.3139 21.6253 93.2398 21.4483L92.8278 20.4599C92.7624 20.3064 92.6197 20.2109 92.4522 20.2109H89.5384C89.3664 20.2109 89.2195 20.3118 89.1584 20.472L88.7925 21.4344C88.7227 21.6189 88.5532 21.7346 88.3549 21.7346H86.9568C86.8815 21.7346 86.8172 21.7006 86.7752 21.6392C86.7335 21.578 86.726 21.5059 86.754 21.4366L89.6401 14.3276C89.7121 14.1481 89.8794 14.0368 90.0737 14.0368H91.6916C91.8817 14.0368 92.0426 14.1408 92.1198 14.3128ZM92.0296 18.5676L91.1177 16.3827C91.0821 16.2982 91.0027 16.2466 90.9115 16.2481C90.8206 16.2503 90.7434 16.3041 90.7109 16.3889L89.8806 18.574C89.8548 18.6427 89.8635 18.7136 89.9052 18.7738C89.9469 18.8339 90.0115 18.8676 90.0852 18.8676H91.8289C91.904 18.8676 91.9686 18.8336 92.0102 18.771C92.0522 18.7091 92.0585 18.6368 92.0296 18.5676ZM104.075 14.3464V21.4249C104.075 21.5953 103.935 21.7346 103.763 21.7346H102.455C102.284 21.7346 102.143 21.5953 102.143 21.4249V18.9294C102.143 18.7583 102.004 18.6192 101.831 18.6192H98.5916C98.42 18.6192 98.2805 18.7583 98.2805 18.9294V21.4249C98.2805 21.5953 98.14 21.7346 97.9685 21.7346H96.6604C96.4888 21.7346 96.3484 21.5953 96.3484 21.4249V14.3464C96.3484 14.1753 96.4888 14.0368 96.6604 14.0368H97.9685C98.14 14.0368 98.2805 14.176 98.2805 14.3464V16.8196C98.2805 16.9907 98.42 17.1292 98.5916 17.1292H101.831C102.004 17.1292 102.143 16.9907 102.143 16.8196V14.3464C102.143 14.1753 102.284 14.0368 102.455 14.0368H103.763C103.935 14.0368 104.075 14.1753 104.075 14.3464ZM105.814 14.3464V21.4249C105.814 21.5953 105.953 21.7351 106.126 21.7351H107.219C107.363 21.7351 107.486 21.6776 107.579 21.5678L111.336 17.0828C111.394 17.0113 111.49 16.9854 111.578 17.0172C111.667 17.0488 111.722 17.1287 111.722 17.2214V21.4249C111.722 21.5953 111.863 21.7346 112.034 21.7346H113.342C113.514 21.7346 113.654 21.5953 113.654 21.4249V14.3464C113.654 14.1753 113.514 14.0368 113.342 14.0368H112.099C111.957 14.0368 111.833 14.0937 111.742 14.202L108.131 18.4583C108.07 18.5291 107.977 18.5536 107.889 18.5223C107.802 18.4902 107.746 18.4112 107.746 18.3181V14.3464C107.746 14.1753 107.605 14.0368 107.434 14.0368H106.126C105.953 14.0368 105.814 14.1753 105.814 14.3464ZM121.091 14.0368H117.938C117.172 14.0368 116.552 14.2586 116.074 14.7022C115.628 15.1239 115.403 15.6396 115.403 16.2488C115.403 16.9922 115.742 17.5654 116.42 17.9701C116.482 18.0078 116.519 18.0676 116.524 18.14C116.53 18.2127 116.502 18.2776 116.447 18.3234C116.311 18.4339 116.187 18.5703 116.074 18.7318C115.923 18.9508 115.722 19.3307 115.472 19.8721C115.233 20.3928 114.992 20.9113 114.752 21.427C114.72 21.4963 114.724 21.5709 114.767 21.6349C114.808 21.699 114.873 21.7346 114.95 21.7346H116.472C116.636 21.7346 116.773 21.6467 116.841 21.5C117.141 20.8547 117.441 20.2069 117.744 19.5566C118.086 18.9246 118.476 18.608 118.916 18.608H119.16C119.332 18.608 119.471 18.7472 119.471 18.918V21.4249C119.471 21.5953 119.612 21.7346 119.783 21.7346H121.091C121.263 21.7346 121.403 21.5953 121.403 21.4249V14.3464C121.403 14.1753 121.263 14.0368 121.091 14.0368ZM119.471 15.7574V16.8873C119.471 17.0578 119.332 17.197 119.16 17.197H118.45C118.146 17.197 117.903 17.1329 117.722 17.0051C117.502 16.8549 117.393 16.6256 117.393 16.3166C117.393 15.7368 117.76 15.4478 118.494 15.4478H119.16C119.332 15.4478 119.471 15.587 119.471 15.7574Z" fill="white"/>
<path d="M9.98261 26.7247C15.9869 26.7247 18.5833 30.2892 18.5833 36.0538C18.5833 41.8279 16.1607 45.498 10.0116 45.498H8.57179C2.52889 45.498 0 41.92 0 36.1401C0 30.379 2.49031 26.7247 8.60078 26.7247H9.98261ZM39.0669 31.4958V44.8019C39.0669 45.1846 38.7517 45.498 38.3663 45.498H35.6572C35.272 45.498 34.9564 45.1851 34.9564 44.8019V31.8389C34.9564 31.1227 34.7602 30.6367 33.977 30.6367C33.5122 30.6367 33.3609 31.1218 33.2363 31.4967L29.5831 42.4998C29.2751 43.427 28.7108 44.1791 27.9008 44.732C27.0919 45.2853 26.1841 45.5549 25.2011 45.5549C22.387 45.5549 20.168 43.6557 20.168 40.7838V27.421C20.168 27.0375 20.4834 26.7247 20.87 26.7247H23.5789C23.9641 26.7247 24.2797 27.0381 24.2797 27.421V40.4412C24.2797 41.1553 24.4749 41.6429 25.2591 41.6429C25.7229 41.6429 25.8742 41.1596 25.9984 40.7838L29.623 29.781C30.2559 27.8607 32.0327 26.7247 34.0337 26.7247C36.8491 26.7247 39.0669 28.6236 39.0669 31.4958ZM34.7761 20.8382C34.1561 22.675 32.1616 23.7118 30.2764 23.1395C28.6551 22.6475 28.3857 21.5684 27.6562 20.9091C26.9889 20.3058 26.0499 20.3538 25.3622 20.8117C24.772 21.2043 24.3666 21.8991 24.478 22.7443C24.5627 23.1936 24.7786 23.622 25.0436 23.9923C25.3569 24.4307 25.7571 24.8143 26.195 25.1296C26.9823 25.696 27.9222 26.0611 28.8911 26.157C30.0177 26.2681 31.1014 26.011 32.0778 25.451C33.3086 24.7457 34.2021 23.5988 34.5809 22.2382C34.7076 21.7816 34.773 21.3105 34.7761 20.8382ZM49.7717 30.6373H49.6568C49.4873 30.6373 49.4272 30.7573 49.3747 30.9043L44.3874 45.0023C44.2879 45.2863 44.0293 45.4686 43.7267 45.4686H41.0581C40.5732 45.4686 40.2353 44.9949 40.3973 44.5404L45.8531 29.2576C46.4626 27.5491 47.9379 26.7247 49.7138 26.7247C51.5173 26.7247 52.9561 27.5241 53.5753 29.2576L59.0302 44.5404C59.1931 44.9956 58.8551 45.4686 58.369 45.4686H55.7009C55.3982 45.4686 55.1397 45.2869 55.0388 45.003L50.0529 30.9331C50.0087 30.8075 49.9292 30.6373 49.7717 30.6373ZM91.3813 31.4958V44.8019C91.3813 45.1846 91.066 45.498 90.681 45.498H87.9718C87.5864 45.498 87.271 45.1851 87.271 44.8019V31.8389C87.271 31.1227 87.0748 30.6367 86.2903 30.6367C85.8269 30.6367 85.6755 31.1218 85.5512 31.4967L81.8977 42.4998C81.5897 43.427 81.0253 44.1791 80.2153 44.732C79.4066 45.2853 78.4987 45.5549 77.5158 45.5549C74.7016 45.5549 72.4826 43.6557 72.4826 40.7838V27.421C72.4826 27.0375 72.798 26.7247 73.1833 26.7247H75.8934C76.2787 26.7247 76.5942 27.0381 76.5942 27.421V40.4412C76.5942 41.1553 76.7896 41.6429 77.5737 41.6429C78.0374 41.6429 78.1884 41.1596 78.313 40.7838L81.9372 29.781C82.5704 27.8607 84.3472 26.7247 86.3482 26.7247C89.1627 26.7247 91.3813 28.6236 91.3813 31.4958ZM107.088 41.4306C106.929 41.2438 106.818 40.9576 106.742 40.7275L103.116 29.8097C102.48 27.892 100.704 26.7535 98.7052 26.7535C95.892 26.7535 93.6723 28.6527 93.6723 31.5246V44.8019C93.6723 45.1851 93.9876 45.498 94.3728 45.498H97.0833C97.4682 45.498 97.7837 45.1851 97.7837 44.8019V31.867C97.7837 31.1515 97.979 30.6655 98.7635 30.6655C99.2278 30.6655 99.377 31.1492 99.5026 31.5246L103.156 42.4422C103.809 44.3916 105.496 45.498 107.538 45.498C109.581 45.498 111.268 44.3922 111.92 42.4422L115.574 31.5246C115.7 31.1487 115.849 30.6655 116.313 30.6655C117.097 30.6655 117.293 31.1515 117.293 31.867V44.8019C117.293 45.1851 117.608 45.498 117.993 45.498H120.703C121.089 45.498 121.403 45.1851 121.403 44.8019V31.5246C121.403 28.6527 119.184 26.7535 116.37 26.7535C114.371 26.7535 112.597 27.8922 111.96 29.8097L108.334 40.7275C108.259 40.9576 108.147 41.2438 107.987 41.4306C107.803 41.6472 107.273 41.6472 107.088 41.4306ZM60.8692 30.6079C61.2541 30.6079 61.5697 30.9213 61.5697 31.3046V44.8019C61.5697 45.1851 61.8863 45.498 62.2704 45.498H64.9806C65.3646 45.498 65.6813 45.1839 65.6813 44.8019V31.3046C65.6813 30.9219 65.9968 30.6079 66.3818 30.6079H70.2112C70.5975 30.6079 70.9129 30.2951 70.9129 29.9118V27.421C70.9129 27.0375 70.5975 26.7247 70.2112 26.7247H57.0389C56.6523 26.7247 56.3381 27.0375 56.3381 27.421V29.9118C56.3381 30.2958 56.6536 30.6079 57.0389 30.6079H60.8692ZM7.79601 30.6261C4.47291 30.6261 3.90983 33.4118 3.90983 36.1689C3.90983 38.8777 4.5707 41.5964 7.76702 41.5964H10.8164C14.0136 41.5964 14.6736 38.8777 14.6736 36.1689C14.6736 33.412 14.1092 30.6261 10.7883 30.6261H7.79601Z" fill="white"/>
</g>
<defs>
<clipPath id="clip0_1_61">
<rect width="190" height="60" fill="white"/>
</clipPath>
</defs>
</svg>
